<svg xmlns="http://www.w3.org/2000/svg" viewBox="0 0 24 24">
  <path fill="#007396" d="M8.292 14.985c-1.011.093-1.76.093-2.541.187-.187 0-.374.093-.374.28 0 .187.187.28.374.28 1.386-.094 2.76-.187 4.145-.187 1.386 0 2.76.093 4.146.187.187 0 .374-.093.374-.28 0-.187-.187-.28-.374-.28-.78-.094-1.573-.094-2.541-.187v-4.24h1.386c.748 0 1.479.093 2.24.187.187 0 .374-.094.374-.28 0-.188-.187-.281-.374-.281-.78-.094-1.573-.094-2.354-.187-.187 0-.374.093-.374.28v-.843c0-.75.187-1.405.748-1.968.187-.187.187-.374 0-.468-.187-.187-.374-.187-.56 0-.749.657-1.01 1.5-1.01 2.436v.843c0 .188-.188.281-.375.281h-2.76c-.187 0-.374-.093-.374-.28v-.844c0-.936-.28-1.78-1.01-2.436-.187-.187-.374-.187-.561 0-.187.094-.187.28 0 .468.56.563.748 1.218.748 1.968v4.333zm10.208 2.81c-.187-.188-.374-.188-.561 0-.374.374-.935.562-1.479.562-1.76 0-2.728-1.593-2.728-3.187 0-.187-.187-.28-.374-.28s-.374.093-.374.28c0 2.062 1.292 3.843 3.476 3.843.748 0 1.479-.28 2.04-.75.187-.187.187-.374 0-.468zm.935-1.687c-2.26-1.312-4.707-2.53-7.247-3.28-.187 0-.374.094-.374.281 0 .187.187.28.374.28 2.354.75 4.707 1.875 6.874 3.094.187.093.374 0 .561-.094.093-.187.093-.374-.187-.28zm.374 2.717c-2.354.844-4.52.563-6.78.563h-4.52c-.187 0-.374.094-.374.281s.187.281.374.281c2.26 0 5.08.281 7.247-.563 2.354-.843 3.852-2.81 3.852-5.248 0-.187-.187-.28-.374-.28s-.374.093-.374.28c-.187 2.25-1.573 3.937-3.665 4.686h3.614z"/>
</svg> 