<svg version="1.1" id="Layer_1" xmlns="http://www.w3.org/2000/svg" xmlns:xlink="http://www.w3.org/1999/xlink" x="0px" y="0px"
	 width="100%" viewBox="0 0 540 360" enable-background="new 0 0 540 360" xml:space="preserve">
<path fill="none" opacity="1.000000" stroke="none" 
	d="
M330.000000,361.000000 
	C220.030396,361.000000 110.560791,361.000000 1.045592,361.000000 
	C1.045592,241.063721 1.045592,121.127419 1.045592,1.095556 
	C180.886292,1.095556 360.772644,1.095556 540.829468,1.095556 
	C540.829468,120.999809 540.829468,240.999878 540.829468,361.000000 
	C470.794067,361.000000 400.647034,361.000000 330.000000,361.000000 
M355.581085,319.920502 
	C357.082916,321.238373 358.485138,322.695709 360.102661,323.851685 
	C371.200897,331.783081 368.378082,332.382782 378.723450,323.924652 
	C399.088531,307.274597 419.103851,290.172821 438.797516,272.731415 
	C465.159149,249.384628 489.965820,224.545654 509.160065,194.681564 
	C525.861450,168.696106 533.957092,140.764725 529.053650,109.701958 
	C521.569153,62.288097 477.723022,18.754084 417.489380,34.985428 
	C395.843262,40.818470 377.904663,51.650784 370.181244,74.454666 
	C370.122009,74.629654 369.657471,74.667358 369.077911,74.881645 
	C365.385742,62.552567 357.763611,53.040379 347.090271,46.201313 
	C315.997528,26.278252 266.498962,21.940708 233.292892,60.790871 
	C204.112213,94.931450 201.807632,133.721802 218.964539,174.019379 
	C229.945099,199.810150 248.037140,220.855377 267.181061,240.934601 
	C294.368744,269.450562 324.946136,294.189636 355.581085,319.920502 
M59.587692,72.511833 
	C68.147995,76.162888 72.643494,82.714821 72.654839,91.945534 
	C72.727760,151.254868 72.750801,210.564453 72.633667,269.873657 
	C72.609901,281.907318 64.108612,290.097137 52.054932,290.335510 
	C45.560074,290.463928 39.060204,290.314667 32.563644,290.386078 
	C20.377987,290.520050 11.506510,298.991577 11.527924,310.392548 
	C11.549469,321.863770 20.288145,330.285492 32.563938,330.306488 
	C72.381104,330.374512 112.198547,330.377625 152.015701,330.304352 
	C164.246918,330.281860 173.072800,321.774353 173.068039,310.395294 
	C173.063263,298.987915 164.211929,290.528564 152.018219,290.374176 
	C145.688766,290.294037 139.355103,290.470123 133.027466,290.336029 
	C120.813126,290.077271 112.728241,282.035065 112.713348,269.770996 
	C112.641342,210.461670 112.638756,151.152145 112.720154,91.842842 
	C112.737129,79.479652 121.166908,71.282318 133.496231,71.159698 
	C140.492630,71.090111 147.496674,71.309677 154.485291,71.061401 
	C162.858093,70.763969 169.980270,64.867126 172.337234,56.732239 
	C174.663940,48.701759 171.796066,39.537113 164.451187,35.377560 
	C160.477478,33.127167 155.408340,31.833567 150.820694,31.799152 
	C113.671097,31.520483 76.518486,31.638224 39.366802,31.650921 
	C35.870560,31.652115 32.352730,31.535454 28.882431,31.866590 
	C20.421377,32.673950 13.296008,39.441273 11.879594,47.724415 
	C9.770987,60.055489 18.458590,70.701477 30.970646,71.146812 
	C40.265781,71.477646 49.559788,71.840317 59.587692,72.511833 
z"/>
<path fill="#FE0101" opacity="1.000000" stroke="none" 
	d="
M355.322144,319.678223 
	C324.946136,294.189636 294.368744,269.450562 267.181061,240.934601 
	C248.037140,220.855377 229.945099,199.810150 218.964539,174.019379 
	C201.807632,133.721802 204.112213,94.931450 233.292892,60.790871 
	C266.498962,21.940708 315.997528,26.278252 347.090271,46.201313 
	C357.763611,53.040379 365.385742,62.552567 369.077911,74.881645 
	C369.657471,74.667358 370.122009,74.629654 370.181244,74.454666 
	C377.904663,51.650784 395.843262,40.818470 417.489380,34.985428 
	C477.723022,18.754084 521.569153,62.288097 529.053650,109.701958 
	C533.957092,140.764725 525.861450,168.696106 509.160065,194.681564 
	C489.965820,224.545654 465.159149,249.384628 438.797516,272.731415 
	C419.103851,290.172821 399.088531,307.274597 378.723450,323.924652 
	C368.378082,332.382782 371.200897,331.783081 360.102661,323.851685 
	C358.485138,322.695709 357.082916,321.238373 355.322144,319.678223 
z"/>
<path fill="#000000" opacity="1.000000" stroke="none" 
	d="
M59.220993,72.350311 
	C49.559788,71.840317 40.265781,71.477646 30.970646,71.146812 
	C18.458590,70.701477 9.770987,60.055489 11.879594,47.724415 
	C13.296008,39.441273 20.421377,32.673950 28.882431,31.866590 
	C32.352730,31.535454 35.870560,31.652115 39.366802,31.650921 
	C76.518486,31.638224 113.671097,31.520483 150.820694,31.799152 
	C155.408340,31.833567 160.477478,33.127167 164.451187,35.377560 
	C171.796066,39.537113 174.663940,48.701759 172.337234,56.732239 
	C169.980270,64.867126 162.858093,70.763969 154.485291,71.061401 
	C147.496674,71.309677 140.492630,71.090111 133.496231,71.159698 
	C121.166908,71.282318 112.737129,79.479652 112.720154,91.842842 
	C112.638756,151.152145 112.641342,210.461670 112.713348,269.770996 
	C112.728241,282.035065 120.813126,290.077271 133.027466,290.336029 
	C139.355103,290.470123 145.688766,290.294037 152.018219,290.374176 
	C164.211929,290.528564 173.063263,298.987915 173.068039,310.395294 
	C173.072800,321.774353 164.246918,330.281860 152.015701,330.304352 
	C112.198547,330.377625 72.381104,330.374512 32.563938,330.306488 
	C20.288145,330.285492 11.549469,321.863770 11.527924,310.392548 
	C11.506510,298.991577 20.377987,290.520050 32.563644,290.386078 
	C39.060204,290.314667 45.560074,290.463928 52.054932,290.335510 
	C64.108612,290.097137 72.609901,281.907318 72.633667,269.873657 
	C72.750801,210.564453 72.727760,151.254868 72.654839,91.945534 
	C72.643494,82.714821 68.147995,76.162888 59.220993,72.350311 
z"/>
</svg>
